<mxfile host="app.diagrams.net" agent="Mozilla/5.0 (Windows NT 10.0; Win64; x64) AppleWebKit/537.36 (KHTML, like Gecko) Chrome/136.0.0.0 Safari/537.36" version="27.0.6">
  <diagram name="Page-1" id="tAxS5WnO4Zglxma8KiiK">
    <mxGraphModel dx="2066" dy="1103" grid="1" gridSize="10" guides="1" tooltips="1" connect="1" arrows="1" fold="1" page="1" pageScale="1" pageWidth="827" pageHeight="1169" math="0" shadow="0">
      <root>
        <mxCell id="0" />
        <mxCell id="1" parent="0" />
        <mxCell id="MTxBIC-41gyzcu3u_ZrO-2" value="" style="shape=umlLifeline;perimeter=lifelinePerimeter;whiteSpace=wrap;html=1;container=1;dropTarget=0;collapsible=0;recursiveResize=0;outlineConnect=0;portConstraint=eastwest;newEdgeStyle={&quot;curved&quot;:0,&quot;rounded&quot;:0};participant=umlActor;" vertex="1" parent="1">
          <mxGeometry x="90" y="80" width="20" height="680" as="geometry" />
        </mxCell>
        <mxCell id="MTxBIC-41gyzcu3u_ZrO-11" value="" style="html=1;points=[[0,0,0,0,5],[0,1,0,0,-5],[1,0,0,0,5],[1,1,0,0,-5]];perimeter=orthogonalPerimeter;outlineConnect=0;targetShapes=umlLifeline;portConstraint=eastwest;newEdgeStyle={&quot;curved&quot;:0,&quot;rounded&quot;:0};" vertex="1" parent="MTxBIC-41gyzcu3u_ZrO-2">
          <mxGeometry x="5" y="170" width="10" height="80" as="geometry" />
        </mxCell>
        <mxCell id="MTxBIC-41gyzcu3u_ZrO-3" value=":Machine" style="shape=umlLifeline;perimeter=lifelinePerimeter;whiteSpace=wrap;html=1;container=1;dropTarget=0;collapsible=0;recursiveResize=0;outlineConnect=0;portConstraint=eastwest;newEdgeStyle={&quot;curved&quot;:0,&quot;rounded&quot;:0};" vertex="1" parent="1">
          <mxGeometry x="370" y="80" width="100" height="680" as="geometry" />
        </mxCell>
        <mxCell id="MTxBIC-41gyzcu3u_ZrO-8" value="" style="html=1;points=[[0,0,0,0,5],[0,1,0,0,-5],[1,0,0,0,5],[1,1,0,0,-5]];perimeter=orthogonalPerimeter;outlineConnect=0;targetShapes=umlLifeline;portConstraint=eastwest;newEdgeStyle={&quot;curved&quot;:0,&quot;rounded&quot;:0};" vertex="1" parent="MTxBIC-41gyzcu3u_ZrO-3">
          <mxGeometry x="45" y="80" width="10" height="410" as="geometry" />
        </mxCell>
        <mxCell id="MTxBIC-41gyzcu3u_ZrO-9" value="" style="html=1;points=[[0,0,0,0,5],[0,1,0,0,-5],[1,0,0,0,5],[1,1,0,0,-5]];perimeter=orthogonalPerimeter;outlineConnect=0;targetShapes=umlLifeline;portConstraint=eastwest;newEdgeStyle={&quot;curved&quot;:0,&quot;rounded&quot;:0};" vertex="1" parent="MTxBIC-41gyzcu3u_ZrO-3">
          <mxGeometry x="50" y="120" width="10" height="40" as="geometry" />
        </mxCell>
        <mxCell id="MTxBIC-41gyzcu3u_ZrO-10" value="VÃ©rifierValidite (numero)" style="html=1;align=left;spacingLeft=2;endArrow=block;rounded=0;edgeStyle=orthogonalEdgeStyle;curved=0;rounded=0;" edge="1" target="MTxBIC-41gyzcu3u_ZrO-9" parent="MTxBIC-41gyzcu3u_ZrO-3">
          <mxGeometry relative="1" as="geometry">
            <mxPoint x="55" y="100" as="sourcePoint" />
            <Array as="points">
              <mxPoint x="85" y="130" />
            </Array>
          </mxGeometry>
        </mxCell>
        <mxCell id="MTxBIC-41gyzcu3u_ZrO-14" value="" style="html=1;points=[[0,0,0,0,5],[0,1,0,0,-5],[1,0,0,0,5],[1,1,0,0,-5]];perimeter=orthogonalPerimeter;outlineConnect=0;targetShapes=umlLifeline;portConstraint=eastwest;newEdgeStyle={&quot;curved&quot;:0,&quot;rounded&quot;:0};" vertex="1" parent="MTxBIC-41gyzcu3u_ZrO-3">
          <mxGeometry x="50" y="290" width="10" height="40" as="geometry" />
        </mxCell>
        <mxCell id="MTxBIC-41gyzcu3u_ZrO-15" value="verifierCodeSecret ()" style="html=1;align=left;spacingLeft=2;endArrow=block;rounded=0;edgeStyle=orthogonalEdgeStyle;curved=0;rounded=0;" edge="1" target="MTxBIC-41gyzcu3u_ZrO-14" parent="MTxBIC-41gyzcu3u_ZrO-3">
          <mxGeometry relative="1" as="geometry">
            <mxPoint x="55" y="270" as="sourcePoint" />
            <Array as="points">
              <mxPoint x="85" y="300" />
            </Array>
          </mxGeometry>
        </mxCell>
        <mxCell id="MTxBIC-41gyzcu3u_ZrO-5" value=":Banque" style="shape=umlLifeline;perimeter=lifelinePerimeter;whiteSpace=wrap;html=1;container=1;dropTarget=0;collapsible=0;recursiveResize=0;outlineConnect=0;portConstraint=eastwest;newEdgeStyle={&quot;curved&quot;:0,&quot;rounded&quot;:0};" vertex="1" parent="1">
          <mxGeometry x="650" y="80" width="100" height="680" as="geometry" />
        </mxCell>
        <mxCell id="MTxBIC-41gyzcu3u_ZrO-18" value="" style="html=1;points=[[0,0,0,0,5],[0,1,0,0,-5],[1,0,0,0,5],[1,1,0,0,-5]];perimeter=orthogonalPerimeter;outlineConnect=0;targetShapes=umlLifeline;portConstraint=eastwest;newEdgeStyle={&quot;curved&quot;:0,&quot;rounded&quot;:0};" vertex="1" parent="MTxBIC-41gyzcu3u_ZrO-5">
          <mxGeometry x="45" y="350" width="10" height="50" as="geometry" />
        </mxCell>
        <mxCell id="MTxBIC-41gyzcu3u_ZrO-7" value="introduireCarte ()" style="html=1;verticalAlign=bottom;endArrow=block;curved=0;rounded=0;entryX=0;entryY=0;entryDx=0;entryDy=5;entryPerimeter=0;" edge="1" parent="1" source="MTxBIC-41gyzcu3u_ZrO-2" target="MTxBIC-41gyzcu3u_ZrO-8">
          <mxGeometry width="80" relative="1" as="geometry">
            <mxPoint x="170" y="220" as="sourcePoint" />
            <mxPoint x="335" y="205" as="targetPoint" />
          </mxGeometry>
        </mxCell>
        <mxCell id="MTxBIC-41gyzcu3u_ZrO-12" value="demanderCode ()" style="html=1;verticalAlign=bottom;endArrow=block;curved=0;rounded=0;entryX=0;entryY=0;entryDx=0;entryDy=5;" edge="1" target="MTxBIC-41gyzcu3u_ZrO-11" parent="1" source="MTxBIC-41gyzcu3u_ZrO-3">
          <mxGeometry relative="1" as="geometry">
            <mxPoint x="160" y="255" as="sourcePoint" />
          </mxGeometry>
        </mxCell>
        <mxCell id="MTxBIC-41gyzcu3u_ZrO-13" value="code_secret" style="html=1;verticalAlign=bottom;endArrow=open;dashed=1;endSize=8;curved=0;rounded=0;exitX=0;exitY=1;exitDx=0;exitDy=-5;" edge="1" source="MTxBIC-41gyzcu3u_ZrO-11" parent="1" target="MTxBIC-41gyzcu3u_ZrO-3">
          <mxGeometry relative="1" as="geometry">
            <mxPoint x="160" y="325" as="targetPoint" />
          </mxGeometry>
        </mxCell>
        <mxCell id="MTxBIC-41gyzcu3u_ZrO-19" value="demanderAutorisation ()" style="html=1;verticalAlign=bottom;endArrow=block;curved=0;rounded=0;entryX=0;entryY=0;entryDx=0;entryDy=5;" edge="1" target="MTxBIC-41gyzcu3u_ZrO-18" parent="1" source="MTxBIC-41gyzcu3u_ZrO-3">
          <mxGeometry relative="1" as="geometry">
            <mxPoint x="580" y="435" as="sourcePoint" />
          </mxGeometry>
        </mxCell>
        <mxCell id="MTxBIC-41gyzcu3u_ZrO-20" value="solde_autoriser" style="html=1;verticalAlign=bottom;endArrow=open;dashed=1;endSize=8;curved=0;rounded=0;exitX=0;exitY=1;exitDx=0;exitDy=-5;" edge="1" source="MTxBIC-41gyzcu3u_ZrO-18" parent="1" target="MTxBIC-41gyzcu3u_ZrO-3">
          <mxGeometry relative="1" as="geometry">
            <mxPoint x="580" y="505" as="targetPoint" />
          </mxGeometry>
        </mxCell>
      </root>
    </mxGraphModel>
  </diagram>
</mxfile>
